<svg xmlns="http://www.w3.org/2000/svg" viewBox="0 0 226.71 63.21"><defs><style>.cls-1{fill:#fff;}</style></defs><title>Asset 3</title><g id="Layer_2" data-name="Layer 2"><g id="Layer_1-2" data-name="Layer 1"><g id="Layer_4" data-name="Layer 4"><polygon class="cls-1" points="43.86 15.75 57.99 13.62 57.99 61.77 71.79 61.77 71.79 13.62 85.65 15.75 85.65 0.86 43.86 0.86 43.86 15.75"/><path class="cls-1" d="M144.83,59.13l22.45-9.07L170,58l-1.16,3.78h29.29L226.71.88H208.17L210,4.66l-9.08,19.2-9.37-23h-17l2.88,3.79,15.71,35.16L185.6,55.6,163.9.87H148.44l1.67,3.79-20.46,51C118.24,46,117.51,41.09,117.51,41.09L118,41c9.38-1.65,15.14-9.55,15.14-19.18,0-8.64-4.61-15.8-11.19-18.76-3.21-1.4-8.07-2.22-14.4-2.22H87.63V58.05l-1.07,3.72h16V42.1s5,11.16,12.74,16.25l-.65,3.42H143.9ZM108.29,30.34h-5.77v-17h5.93c5.84,0,9.79,3,9.79,8.23C118.24,27.46,114.46,30.34,108.29,30.34ZM150.4,43.41l7.24-23.62,5.76,18.37Z"/><path class="cls-1" d="M26.42,25.92c-6.67-2.88-10-4.52-10-8.14,0-2.72,2.47-4.74,5.35-4.78,3.43,0,5.46,1.67,6,5.36L42.22,16c-1-5.62-3.91-10.68-9.22-13.44A23.2,23.2,0,0,0,22.22,0C11,0,1,7.57,1,17.94c0,7.9,4.52,13.17,14.48,17.2C21,37.36,27.73,39.5,27.73,44.36A5.81,5.81,0,0,1,22,50.2h-.06c-3.87,0-6.34-3.29-6.42-8.31L0,39.65v3.56c0,13.08,8.72,20,22,20S43.24,56.3,43.24,44.53C43.21,36.54,39.83,31.68,26.42,25.92Z"/></g></g></g></svg>