<svg width="24" height="24" viewBox="0 0 24 24" fill="none" xmlns="http://www.w3.org/2000/svg">
<g clip-path="url(#clip0_225:7)">
<path d="M8.77 0H1.32C0.590984 0 0 0.590984 0 1.32V8.77C0 9.49902 0.590984 10.09 1.32 10.09H8.77C9.49902 10.09 10.09 9.49902 10.09 8.77V1.32C10.09 0.590984 9.49902 0 8.77 0Z" fill="#B8B8B8"/>
<path d="M21.87 0H14.42C13.691 0 13.1 0.590984 13.1 1.32V8.77C13.1 9.49902 13.691 10.09 14.42 10.09H21.87C22.599 10.09 23.19 9.49902 23.19 8.77V1.32C23.19 0.590984 22.599 0 21.87 0Z" fill="#B8B8B8"/>
<path d="M8.77 13.1H1.32C0.590984 13.1 0 13.691 0 14.42V21.87C0 22.599 0.590984 23.19 1.32 23.19H8.77C9.49902 23.19 10.09 22.599 10.09 21.87V14.42C10.09 13.691 9.49902 13.1 8.77 13.1Z" fill="#B8B8B8"/>
<path d="M21.87 13.1H14.42C13.691 13.1 13.1 13.691 13.1 14.42V21.87C13.1 22.599 13.691 23.19 14.42 23.19H21.87C22.599 23.19 23.19 22.599 23.19 21.87V14.42C23.19 13.691 22.599 13.1 21.87 13.1Z" fill="#B8B8B8"/>
</g>
<defs>
<clipPath id="clip0_225:7">
<rect width="23.19" height="23.19" fill="white"/>
</clipPath>
</defs>
</svg>
